<?xml version="1.0" standalone="no"?>
<!--<!DOCTYPE svg PUBLIC "-//W3C//DTD SVG 20010904//EN"-->
<!-- "http://www.w3.org/TR/2001/REC-SVG-20010904/DTD/svg10.dtd">-->
<svg version="1.0" xmlns="http://www.w3.org/2000/svg"
 width="10990.0pt" height="8200.0pt" viewBox="0 0 10990.0 8200.0"
 preserveAspectRatio="xMidYMid meet">

<g transform="translate(0.000000,8034.000000) scale(0.100000,-0.100000)"
fill="#FFFFFF" stroke="none">
<path d="M54810 80319 c-934 -73 -1839 -381 -2610 -886 -326 -214 -573 -416
-850 -693 -421 -420 -714 -827 -979 -1360 -248 -498 -412 -989 -506 -1515
-384 -2146 564 -4271 2465 -5520 85 -56 261 -164 390 -240 289 -170 408 -243
558 -344 370 -248 591 -478 640 -666 18 -66 50 -741 74 -1550 14 -475 17
-2773 4 -3927 l-8 -748 -825 0 -824 0 -44 93 c-84 177 -137 371 -191 697 -63
383 -121 616 -215 867 -375 1002 -1095 1670 -2074 1923 -343 89 -561 111
-1500 150 -884 36 -2694 46 -4165 21 -377 -6 -1080 -14 -1562 -18 l-878 -6 0
-1163 0 -1164 3388 -3 c3692 -3 3417 1 3679 -56 692 -151 1009 -636 954 -1458
-16 -244 -12 -231 -75 -237 -83 -9 -817 -65 -991 -76 -214 -13 -2020 -13
-5525 1 -2942 12 -5760 2 -6115 -21 -1258 -84 -2333 -480 -3210 -1183 -1021
-819 -1702 -2031 -1934 -3442 -57 -345 -66 -473 -66 -895 1 -412 9 -522 60
-833 215 -1283 926 -2430 2081 -3353 89 -71 255 -196 370 -279 115 -82 313
-231 440 -330 126 -99 294 -229 372 -290 77 -60 141 -115 141 -121 1 -11 -33
-74 -1534 -2799 -1558 -2828 -2334 -4245 -3100 -5655 -259 -477 -385 -725
-468 -920 -158 -372 -258 -723 -302 -1055 -20 -146 -22 -433 -5 -570 59 -483
300 -880 700 -1154 401 -275 938 -434 1655 -491 72 -6 758 -15 1525 -21 2155
-17 7583 4 8165 31 1056 50 1791 286 2215 711 239 239 368 509 420 879 16 110
14 396 -4 540 -56 455 -236 991 -522 1562 -143 285 -1484 2776 -3554 6598
-537 993 -1041 1923 -1119 2067 -77 143 -141 265 -141 270 1 4 92 76 203 158
1430 1064 2196 1836 2581 2603 133 265 214 496 282 810 l4 22 -1307 -1 -1308
0 -90 -112 c-119 -147 -462 -491 -600 -601 -759 -605 -1587 -771 -2517 -505
-560 161 -1022 437 -1428 855 -155 160 -235 259 -358 444 -357 535 -535 1187
-493 1796 44 615 246 1171 598 1642 107 144 397 437 538 543 521 395 1144 626
1870 694 384 35 818 38 6703 42 3174 2 5772 2 5772 0 0 -7 68 -337 111 -537
l42 -195 8 -1490 c12 -2161 37 -8493 50 -12530 12 -3775 7 -9086 -12 -12145
-14 -2234 -11 -2362 67 -2899 193 -1341 826 -2228 2055 -2880 l116 -61 7 1987
c3 1094 11 3136 16 4538 38 10125 48 13337 60 18715 13 6275 13 6240 34 6415
9 77 22 174 29 215 l13 75 902 3 903 2 -7 -317 c-3 -175 -1 -1418 5 -2763 6
-1345 18 -3930 26 -5745 41 -9275 70 -14578 105 -19390 5 -748 14 -1972 20
-2720 15 -2087 15 -2094 66 -2395 47 -277 107 -501 302 -1135 71 -231 147
-487 168 -568 l39 -148 437 3 c240 2 439 6 442 9 3 3 30 93 60 200 30 107 93
320 141 474 234 752 301 1017 345 1364 26 201 29 307 40 1811 25 3198 30 3909
40 5310 20 3051 41 6717 60 10965 6 1238 17 3695 26 5460 8 1766 18 4644 21
6398 l6 3187 963 0 964 0 0 -16005 c0 -8803 3 -16005 7 -16005 15 0 370 244
533 366 903 678 1376 1381 1525 2268 47 279 47 302 50 1846 1 814 7 1660 13
1905 68 2524 80 2972 92 3500 18 766 28 3055 40 8450 6 2827 14 6897 19 9045
5 2148 5 3973 1 4055 -12 215 -12 490 1 601 15 138 42 236 95 344 38 77 62
110 128 176 69 69 97 89 186 132 124 60 259 96 422 111 156 14 8060 24 9488
11 1231 -11 2228 -26 2615 -40 300 -11 468 -33 690 -90 194 -49 314 -94 500
-185 461 -227 831 -590 1109 -1090 220 -396 395 -979 447 -1489 17 -173 7
-554 -20 -720 -67 -414 -217 -806 -437 -1141 -282 -430 -685 -792 -1166 -1045
-358 -189 -860 -337 -1287 -380 -155 -15 -479 -13 -623 6 -760 96 -1419 513
-1961 1240 l-92 124 -1227 0 c-994 0 -1228 -2 -1228 -13 0 -7 29 -87 64 -177
331 -853 607 -1293 1156 -1840 276 -277 459 -436 1120 -976 449 -367 760 -631
760 -645 0 -9 -282 -522 -1635 -2969 -1574 -2847 -2705 -4909 -3299 -6011
-245 -455 -371 -797 -437 -1180 -29 -175 -37 -490 -15 -656 111 -841 724
-1428 1696 -1623 203 -41 361 -59 606 -70 116 -5 1406 -12 2865 -16 2638 -6
3660 0 4664 28 647 18 963 14 1390 -15 721 -51 1023 -57 1325 -27 769 77 1293
398 1675 1026 463 760 460 1512 -10 2374 -129 236 -193 339 -532 855 -301 458
-355 553 -698 1210 -723 1388 -1186 2258 -2740 5145 -991 1842 -1105 2055
-1105 2062 0 3 57 48 128 99 2559 1866 3617 3653 3361 5683 -103 823 -463
1785 -934 2496 -884 1336 -2319 2079 -4400 2279 -578 56 -804 61 -2660 61
-907 1 -2275 5 -3040 10 -764 5 -2599 12 -4076 16 l-2687 7 -11 91 c-37 282
-40 632 -7 806 95 515 379 810 887 921 248 54 120 51 3129 59 2817 8 2893 9
3170 45 457 61 676 210 745 510 36 152 35 439 0 725 -19 147 -92 594 -138 835
l-32 170 -835 6 c-459 4 -1157 12 -1550 18 -1995 30 -3049 22 -4170 -29 -624
-29 -912 -55 -1147 -105 -988 -208 -1719 -763 -2134 -1620 -165 -342 -264
-689 -319 -1125 -48 -379 -109 -629 -195 -801 l-25 -49 -848 0 -847 0 0 2107
c0 1160 -4 2356 -9 2658 -6 398 -5 589 3 690 49 583 203 963 525 1293 231 237
399 352 856 587 609 313 997 585 1398 979 535 526 906 1119 1143 1826 179 536
263 1038 276 1660 24 1153 -233 2211 -745 3060 -209 347 -435 634 -737 936
-436 437 -931 787 -1545 1093 -657 328 -1297 505 -2019 561 -155 12 -646 11
-801 -1z m835 -2417 c818 -127 1507 -535 1998 -1184 118 -156 204 -295 296
-483 145 -293 242 -602 292 -935 21 -135 24 -191 24 -435 0 -299 -8 -377 -61
-613 -116 -517 -399 -1035 -786 -1438 -503 -524 -1120 -847 -1802 -946 -177
-25 -507 -30 -671 -9 -1113 139 -2098 912 -2525 1981 -434 1087 -163 2336 695
3196 140 140 262 246 396 340 419 297 875 475 1379 539 169 21 591 14 765 -13z
m19645 -31137 c1086 -1914 2215 -3905 2510 -4425 l536 -945 -5050 -3 c-2777
-1 -5051 0 -5053 2 -3 3 3168 5705 4856 8733 l146 262 41 -72 c23 -40 929
-1638 2014 -3552z m-37465 2403 c329 -590 1426 -2556 2438 -4368 1012 -1812
1842 -3301 1844 -3307 4 -10 -974 -13 -4872 -13 -2682 0 -4875 4 -4873 8 13
33 4853 8752 4858 8752 4 0 276 -483 605 -1072z"/>
<path d="M104426 20890 c-1197 -83 -2273 -583 -3116 -1446 -393 -403 -721
-871 -1010 -1439 -437 -862 -697 -1802 -844 -3055 -175 -1482 -179 -3464 -10
-4935 116 -1012 305 -1837 581 -2530 282 -708 624 -1296 1059 -1820 128 -154
428 -457 569 -574 1011 -841 2196 -1214 3525 -1110 924 72 1779 399 2549 974
200 149 334 266 531 464 310 311 561 629 804 1021 657 1056 1025 2226 1205
3825 133 1180 145 2771 30 4015 -156 1698 -517 2932 -1184 4050 -366 613 -802
1121 -1310 1524 -132 105 -464 327 -630 422 -575 326 -1228 532 -1905 599
-187 19 -666 27 -844 15z m547 -1520 c533 -31 1002 -179 1491 -470 731 -435
1264 -1086 1671 -2039 415 -976 624 -2036 707 -3596 16 -304 16 -1391 0 -1690
-71 -1308 -244 -2303 -567 -3255 -231 -681 -492 -1176 -853 -1620 -115 -141
-381 -405 -517 -513 -1148 -911 -2550 -1015 -3762 -279 -462 280 -858 652
-1166 1094 -458 658 -761 1463 -926 2468 -260 1576 -266 4135 -15 5760 118
762 302 1376 584 1948 248 504 494 849 851 1197 625 609 1420 966 2224 998 39
2 79 4 90 5 11 1 96 -3 188 -8z"/>
<path d="M10 12430 l0 -8060 3925 0 3925 0 0 780 0 780 -3115 0 -3115 0 0
7280 0 7280 -810 0 -810 0 0 -8060z"/>
<path d="M49072 20428 c-117 -249 -7615 -16045 -7619 -16051 -2 -4 404 -6 902
-5 l906 3 1258 2645 1258 2645 3493 0 3493 0 1271 -2647 1271 -2648 874 0
c827 0 873 1 867 17 -4 10 -1702 3637 -3774 8060 l-3767 8043 -202 0 -201 0
-30 -62z m1603 -6273 c752 -1589 1370 -2898 1372 -2907 5 -17 -131 -18 -2757
-18 -2395 0 -2761 2 -2758 14 8 36 2763 5815 2769 5808 3 -4 622 -1307 1374
-2897z"/>
<path d="M90002 16513 c-409 -2188 -746 -3990 -749 -4005 -5 -27 -5 -27 203
58 994 406 1892 658 2654 744 735 83 1452 20 2052 -181 383 -128 757 -330
1063 -573 140 -112 443 -419 549 -556 320 -414 526 -853 640 -1360 147 -660
135 -1444 -35 -2134 -219 -887 -725 -1666 -1463 -2251 -536 -425 -1112 -668
-1806 -762 -192 -26 -758 -26 -939 0 -321 46 -570 111 -856 224 -743 293
-1319 778 -1663 1398 -154 279 -298 675 -383 1058 l-21 97 -829 0 -829 0 0
-23 c0 -31 44 -280 75 -424 176 -815 512 -1513 1033 -2143 125 -151 444 -468
607 -604 717 -596 1522 -943 2475 -1065 545 -71 1178 -61 1765 25 1508 223
2756 978 3585 2168 517 743 855 1600 985 2499 47 328 59 514 59 917 0 659 -63
1145 -220 1695 -375 1312 -1299 2432 -2507 3036 -680 341 -1482 519 -2337 519
-520 0 -1097 -85 -1713 -251 -104 -28 -191 -49 -194 -46 -5 6 795 4364 804
4380 2 4 1298 7 2879 7 l2874 0 0 765 0 765 -3508 0 -3507 0 -743 -3977z"/>
<path d="M14820 16589 c-1199 -78 -2273 -474 -3209 -1182 -441 -333 -861 -741
-1209 -1176 -890 -1108 -1332 -2393 -1332 -3866 0 -1314 337 -2481 1007 -3493
374 -564 866 -1099 1409 -1532 730 -583 1565 -974 2462 -1155 705 -142 1487
-161 2212 -55 1435 211 2687 928 3744 2144 l121 139 3 -1021 2 -1022 760 0
760 0 -2 5963 -3 5962 -757 3 -758 2 -2 -1097 -3 -1096 -103 136 c-620 826
-1402 1475 -2232 1852 -633 288 -1279 446 -2025 495 -174 11 -664 11 -845 -1z
m1110 -1493 c860 -95 1588 -374 2245 -861 368 -272 754 -658 1030 -1030 569
-764 883 -1697 913 -2715 29 -925 -127 -1702 -488 -2435 -446 -905 -1141
-1591 -2095 -2065 -531 -263 -1047 -416 -1635 -486 -182 -21 -685 -30 -877
-15 -614 49 -1154 199 -1702 471 -839 418 -1485 1020 -1979 1844 -179 300
-380 742 -482 1061 -310 972 -303 1998 20 2965 186 560 480 1101 843 1555 559
699 1312 1220 2177 1505 331 110 731 189 1110 220 164 13 752 4 920 -14z"/>
<path d="M64635 16590 c-1669 -120 -3021 -848 -4118 -2220 -77 -96 -151 -192
-165 -212 -13 -21 -29 -38 -33 -38 -5 0 -9 481 -9 1090 l0 1090 -770 0 -770 0
0 -8145 0 -8145 770 0 770 0 2 3201 3 3201 111 -128 c513 -597 1078 -1075
1699 -1439 187 -110 564 -295 755 -370 293 -117 651 -224 965 -289 684 -142
1487 -162 2220 -55 986 144 1907 539 2705 1159 891 694 1599 1606 2005 2585
433 1044 577 2304 399 3495 -197 1321 -802 2480 -1811 3471 -1047 1028 -2243
1591 -3683 1735 -190 19 -852 28 -1045 14z m860 -1499 c235 -28 379 -54 595
-107 1032 -253 1953 -860 2590 -1709 461 -614 792 -1360 924 -2085 56 -306 76
-533 76 -870 0 -259 -8 -399 -36 -615 -105 -827 -454 -1666 -985 -2370 -136
-181 -235 -295 -412 -474 -292 -295 -576 -518 -937 -734 -145 -87 -517 -270
-675 -332 -427 -169 -863 -269 -1329 -306 -285 -22 -779 -3 -1071 41 -1039
160 -2053 678 -2757 1409 -732 759 -1170 1766 -1257 2886 -56 717 22 1437 224
2065 196 609 534 1192 968 1671 853 941 1878 1448 3127 1548 202 16 760 6 955
-18z"/>
<path d="M79455 16590 c-1162 -83 -2152 -455 -3033 -1137 -422 -327 -836 -751
-1186 -1212 l-101 -134 -3 1097 -2 1096 -770 0 -770 0 0 -8145 0 -8145 770 0
770 0 2 3201 3 3201 120 -138 c838 -966 1791 -1614 2867 -1948 1035 -321 2259
-351 3338 -81 841 211 1610 607 2310 1191 708 590 1280 1308 1665 2089 403
818 605 1674 631 2685 25 945 -152 1874 -511 2685 -470 1063 -1311 2046 -2340
2735 -246 165 -663 390 -935 505 -558 234 -1122 374 -1780 441 -181 18 -858
27 -1045 14z m860 -1499 c752 -91 1423 -333 2039 -738 889 -583 1572 -1498
1919 -2569 158 -485 227 -933 227 -1464 0 -550 -71 -990 -240 -1500 -322 -971
-921 -1818 -1700 -2404 -255 -192 -454 -313 -765 -466 -551 -271 -1063 -413
-1669 -461 -285 -22 -779 -3 -1071 41 -1010 156 -1987 644 -2691 1345 -275
274 -470 521 -671 853 -89 147 -258 489 -322 652 -283 715 -395 1508 -330
2345 72 941 377 1777 910 2492 267 359 651 743 1014 1015 682 510 1486 805
2395 877 202 16 760 6 955 -18z"/>
<path d="M22830 16298 c0 -2 1151 -2685 2558 -5963 l2558 -5960 145 -3 145 -3
20 43 c12 24 873 1944 1914 4266 l1894 4224 26 -54 c15 -29 877 -1949 1916
-4265 l1889 -4213 145 0 145 0 2595 5947 c1427 3270 2596 5954 2598 5965 3 17
-25 18 -795 18 l-798 0 -1869 -4325 c-1029 -2379 -1872 -4325 -1875 -4325 -3
0 -870 1945 -1927 4323 l-1921 4322 -139 3 -140 3 -1909 -4326 c-1050 -2379
-1912 -4325 -1915 -4325 -3 0 -830 1946 -1839 4325 l-1834 4325 -794 0 c-436
0 -793 -1 -793 -2z"/>
</g>
</svg>
